<?xml version="1.0" standalone="no"?>
<!DOCTYPE svg PUBLIC "-//W3C//DTD SVG 20010904//EN"
 "http://www.w3.org/TR/2001/REC-SVG-20010904/DTD/svg10.dtd">
<svg version="1.0" xmlns="http://www.w3.org/2000/svg"
 width="512.000000pt" height="512.000000pt" viewBox="0 0 512.000000 512.000000"
 preserveAspectRatio="xMidYMid meet">

<g transform="translate(0.000000,512.000000) scale(0.100000,-0.100000)"
fill="#000000" stroke="none">
<path d="M2523 5110 c-24 -10 -84 -95 -187 -268 -119 -198 -196 -385 -196
-476 0 -106 54 -229 132 -302 167 -156 425 -151 583 10 27 29 62 77 78 107 32
64 51 166 42 224 -15 100 -98 280 -222 485 -104 172 -124 200 -154 216 -32 16
-45 17 -76 4z m94 -318 c121 -202 193 -365 193 -435 0 -84 -71 -188 -152 -221
-51 -22 -153 -20 -203 3 -55 25 -121 99 -135 153 -21 76 -7 137 64 281 63 129
165 307 176 307 3 0 28 -40 57 -88z"/>
<path d="M1083 4935 c-46 -32 -249 -373 -313 -527 -54 -130 -64 -182 -51 -264
42 -271 308 -430 563 -334 149 56 252 195 265 360 9 116 -55 274 -226 559
-101 170 -145 221 -187 221 -16 0 -39 -7 -51 -15z m111 -320 c65 -109 150
-275 171 -336 22 -61 19 -126 -9 -184 -108 -230 -447 -173 -473 79 -4 43 0 66
26 131 46 114 205 405 222 405 4 0 32 -43 63 -95z"/>
<path d="M3937 4930 c-28 -22 -115 -154 -205 -311 -165 -286 -197 -438 -124
-592 123 -263 456 -329 665 -131 123 117 160 281 102 444 -15 41 -50 119 -77
173 -61 123 -213 370 -251 408 -34 34 -73 38 -110 9z m113 -315 c72 -119 155
-290 175 -357 32 -114 -21 -230 -130 -283 -48 -24 -64 -27 -123 -23 -76 6
-115 23 -163 70 -59 59 -83 143 -64 228 18 82 225 467 245 455 5 -3 32 -44 60
-90z"/>
<path d="M2275 3770 c-51 -20 -50 -7 -53 -562 l-3 -518 -374 0 -374 0 -3 436
-3 436 -28 24 -28 24 -280 0 -280 0 -24 -25 -25 -24 0 -436 0 -435 -167 0
c-93 0 -197 -5 -232 -10 -171 -24 -314 -159 -350 -328 -14 -68 -15 -867 -1
-943 21 -111 116 -254 206 -309 l34 -22 0 -453 0 -453 -101 -4 c-96 -3 -102
-4 -125 -31 -37 -43 -26 -104 23 -126 17 -8 701 -11 2478 -11 l2454 0 27 24
c36 30 39 86 6 119 -20 19 -35 22 -122 25 l-100 4 0 453 0 453 54 40 c95 72
166 192 186 314 13 81 13 824 0 903 -14 86 -60 173 -125 234 -103 98 -190 121
-457 121 l-168 0 0 435 0 436 -26 24 -27 25 -273 0 c-289 0 -313 -3 -333 -47
-7 -16 -11 -159 -11 -448 l0 -425 -380 0 -380 0 0 514 c0 283 -3 522 -6 531
-16 40 -51 45 -326 44 -145 0 -272 -4 -283 -9z m455 -620 l0 -460 -170 0 -170
0 0 460 0 460 170 0 170 0 0 -460z m-1430 -85 l0 -375 -170 0 -170 0 0 375 0
375 170 0 170 0 0 -375z m2850 0 l0 -375 -165 0 -165 0 0 375 0 375 165 0 165
0 0 -375z m616 -572 c50 -27 97 -75 121 -122 17 -33 18 -73 18 -491 l0 -455
-30 -58 c-102 -203 -361 -250 -529 -96 -93 85 -100 110 -106 404 -5 244 -6
251 -32 306 -32 69 -90 129 -160 166 -47 24 -64 28 -143 28 -113 0 -173 -24
-243 -99 -71 -75 -92 -138 -92 -280 0 -137 -13 -216 -48 -279 -105 -195 -374
-229 -531 -68 -75 77 -91 130 -100 331 -7 149 -10 170 -33 215 -36 70 -111
137 -184 165 -164 62 -361 -25 -425 -188 -22 -54 -23 -75 -29 -387 l-5 -330
-28 -57 c-35 -72 -110 -140 -185 -168 -158 -60 -346 20 -421 179 l-26 56 -5
335 c-5 324 -6 337 -28 382 -59 120 -161 188 -291 196 -140 8 -250 -58 -313
-186 l-33 -66 -5 -246 c-5 -243 -6 -245 -34 -307 -33 -72 -94 -134 -164 -166
-72 -33 -208 -31 -282 4 -70 33 -126 89 -159 159 l-26 55 -3 449 -3 450 26 52
c30 61 86 110 148 130 34 10 435 12 2192 11 l2150 -2 41 -22z m-3463 -508 c72
-50 75 -62 79 -415 5 -348 8 -368 73 -479 69 -117 183 -201 320 -236 258 -66
530 103 600 372 12 44 15 123 15 353 0 287 1 297 23 340 57 114 202 123 279
19 28 -38 37 -91 38 -220 0 -76 5 -134 16 -170 110 -373 566 -495 838 -223
108 108 136 186 145 399 6 123 11 169 25 198 27 55 69 81 141 85 56 3 63 1 99
-29 68 -57 76 -87 76 -309 0 -222 12 -294 60 -391 43 -84 136 -175 220 -215
80 -38 149 -54 240 -54 l70 0 0 -420 0 -420 -2100 0 -2100 0 0 420 0 420 73 0
c224 0 416 134 488 341 20 57 23 89 28 311 6 230 7 249 27 275 57 76 154 97
227 48z"/>
</g>
</svg>
